<svg width="1940" height="660" viewBox="0 0 1940 660" fill="none" xmlns="http://www.w3.org/2000/svg">
<mask id="mask0" mask-type="alpha" maskUnits="userSpaceOnUse" x="0" y="0" width="1342" height="660">
<path d="M0 0H978.965C978.965 0 823.115 43.125 1032.47 128.203C1241.83 213.281 1248.05 289.219 1200.14 396.797C1152.24 504.375 1341.37 660 1341.37 660H0V0Z" fill="url(#paint0_linear)"/>
</mask>
<g mask="url(#mask0)">
<rect width="2516" height="660" fill="url(#paint1_linear)"/>
<path d="M1372.08 699.343C1372.08 773.841 1308.91 834.234 1230.97 834.234C1153.04 834.234 1089.86 773.841 1089.86 699.343C1089.86 624.845 1153.04 564.453 1230.97 564.453C1308.91 564.453 1372.08 624.845 1372.08 699.343Z" fill="url(#paint2_linear)"/>
<path d="M1372.08 699.343C1372.08 773.841 1308.91 834.234 1230.97 834.234C1153.04 834.234 1089.86 773.841 1089.86 699.343C1089.86 624.845 1153.04 564.453 1230.97 564.453C1308.91 564.453 1372.08 624.845 1372.08 699.343Z" fill="url(#paint3_linear)"/>
<rect width="294.538" height="298.635" transform="matrix(0.626678 -0.779279 0.787064 0.616871 -144.897 159.673)" fill="url(#paint4_linear)"/>
</g>
<defs>
<linearGradient id="paint0_linear" x1="165.148" y1="501.325" x2="1363.97" y2="178.562" gradientUnits="userSpaceOnUse">
<stop offset="4.52618e-05" stop-color="#1B3F4E"/>
<stop offset="1" stop-color="#5BC0EB"/>
</linearGradient>
<linearGradient id="paint1_linear" x1="26.8635" y1="302.5" x2="1468.44" y2="-654.263" gradientUnits="userSpaceOnUse">
<stop stop-color="#8541CA"/>
<stop offset="0.543423" stop-color="#4EA6CB" stop-opacity="0.92"/>
</linearGradient>
<linearGradient id="paint2_linear" x1="1336.3" y1="646.35" x2="1213.69" y2="835.68" gradientUnits="userSpaceOnUse">
<stop stop-color="#9BC53D"/>
<stop offset="1" stop-color="#58ACD0" stop-opacity="0"/>
</linearGradient>
<linearGradient id="paint3_linear" x1="1336.3" y1="646.35" x2="1213.69" y2="835.68" gradientUnits="userSpaceOnUse">
<stop stop-color="#9BC53D"/>
<stop offset="1" stop-color="#58ACD0" stop-opacity="0"/>
</linearGradient>
<linearGradient id="paint4_linear" x1="252.679" y1="282.934" x2="82.2299" y2="68.8617" gradientUnits="userSpaceOnUse">
<stop stop-color="#E55934"/>
<stop offset="1" stop-color="#933B23" stop-opacity="0.4"/>
</linearGradient>
</defs>
</svg>
